<svg width="20" height="21" viewBox="0 0 20 21" fill="none" xmlns="http://www.w3.org/2000/svg">
<path d="M14.4444 0.5C15.0581 0.5 15.5556 0.997467 15.5556 1.61111V2.72222H17.7778C19.0051 2.72222 20 3.71714 20 4.94444V18.2778C20 19.5051 19.0051 20.5 17.7778 20.5H2.22222C0.994922 20.5 0 19.5051 0 18.2778V4.94444C0 3.71714 0.994922 2.72222 2.22222 2.72222H4.44444V1.61111C4.44444 0.997467 4.9419 0.5 5.55556 0.5C6.16921 0.5 6.66667 0.997467 6.66667 1.61111V2.72222H13.3333V1.61111C13.3333 0.997467 13.8308 0.5 14.4444 0.5ZM17.7778 4.94444H2.22222V18.2778H17.7778V4.94444ZM13.1379 7.58747C13.5718 7.15356 14.2753 7.15356 14.7092 7.58747C15.1432 8.02138 15.1432 8.72489 14.7092 9.15878L9.21745 14.6507C8.77911 15.0889 8.06856 15.0889 7.63034 14.6507L5.28118 12.3016C4.84726 11.8676 4.84726 11.1641 5.28118 10.7301C5.71509 10.2962 6.41861 10.2962 6.85252 10.7301L8.42389 12.3016L13.1379 7.58747Z" fill="#007AFF"/>
</svg>
